<?xml version="1.0" encoding="utf-8"?>
<!-- Generator: Adobe Illustrator 16.0.4, SVG Export Plug-In . SVG Version: 6.00 Build 0)  -->
<!DOCTYPE svg PUBLIC "-//W3C//DTD SVG 1.1//EN" "http://www.w3.org/Graphics/SVG/1.1/DTD/svg11.dtd">
<svg version="1.1" id="Layer_1" xmlns="http://www.w3.org/2000/svg" xmlns:xlink="http://www.w3.org/1999/xlink" x="0px" y="0px"
	 width="36px" height="36px" viewBox="0 0 36 36" enable-background="new 0 0 36 36" xml:space="preserve">
<g>
	<circle fill="#29A7DF" cx="17.916" cy="18.084" r="18.084"/>
	<circle fill="#EAA24C" cx="17.916" cy="18.084" r="16.543"/>
	<circle fill="#29A7DF" cx="17.916" cy="18.084" r="12.974"/>
	<rect x="17.105" y="0.73" fill="#FFFFFF" width="1.784" height="5.028"/>
	<rect x="17.105" y="30.733" fill="#FFFFFF" width="1.784" height="5.03"/>
	<rect x="30.404" y="17.029" fill="#FFFFFF" width="5.028" height="1.785"/>
	<rect x="0.399" y="17.029" fill="#FFFFFF" width="5.029" height="1.785"/>
	
		<rect x="27.552" y="5.042" transform="matrix(0.7072 0.707 -0.707 0.7072 13.6694 -17.8967)" fill="#FFFFFF" width="1.784" height="5.029"/>
	
		<rect x="6.335" y="26.259" transform="matrix(0.7067 0.7075 -0.7075 0.7067 22.4776 3.3257)" fill="#FFFFFF" width="1.785" height="5.029"/>
	
		<rect x="6.74" y="4.394" transform="matrix(0.707 -0.7072 0.7072 0.707 -2.6492 7.422)" fill="#FFFFFF" width="1.784" height="5.028"/>
	
		<rect x="27.957" y="25.61" transform="matrix(0.7071 -0.7071 0.7071 0.7071 -11.4373 28.6369)" fill="#FFFFFF" width="1.784" height="5.028"/>
</g>
</svg>
